<?xml version="1.0" encoding="UTF-8"?>
<svg xmlns="http://www.w3.org/2000/svg" viewBox="0 0 512 512" width="512" height="512"><g id="Filled_outline" data-name="Filled outline"><path d="M144,240a32,32,0,0,0,32,32H336a32,32,0,0,0,32-32V136A112,112,0,0,0,256,24h0A112,112,0,0,0,144,136Z" style="fill:#784533"/><path d="M352,383.989H160v-80h0a32,32,0,0,1,32-32H320a32,32,0,0,1,32,32h0Z" style="fill:#de5540"/><path d="M288,296V240H224v56a8,8,0,0,1-8,8H160v64H352V304H296A8,8,0,0,1,288,296Z" style="fill:#fdc8a2"/><path d="M352,487.989H160v-184h24l7.146,19.056A69.265,69.265,0,0,0,256,367.989h0a69.265,69.265,0,0,0,64.854-44.944L328,303.989h24Z" style="fill:#96b268"/><path d="M288,240v41.33a80.1,80.1,0,0,1-64,0V240Z" style="fill:#fdbf92"/><rect x="160" y="303.989" width="40" height="184" style="fill:#426887"/><path d="M160,431.989v-16h0A25.887,25.887,0,0,0,136.845,430.3L136,431.989H112l34.67-45.33L160,367.989v-64a45.8,45.8,0,0,0-37.659,19.734L106.55,346.539l-32.281,46.6A57.7,57.7,0,0,0,64,426v.964A60.985,60.985,0,0,0,124.984,488c21.7-.007,44.36-.009,59.02-.01a16,16,0,0,0,16-16v-24a16,16,0,0,0-16-16Z" style="fill:#fdc8a2"/><path d="M160,303.989v64l-13.33,18.67-40.12-40.12,15.791-22.816A45.8,45.8,0,0,1,160,303.989Z" style="fill:#96b268"/><path d="M224,88h64a48,48,0,0,1,48,48v56a80,80,0,0,1-80,80h0a80,80,0,0,1-80-80V136a48,48,0,0,1,48-48Z" style="fill:#fdc8a2"/><path d="M368,136V240a32,32,0,0,1-32,32V152h-7.5c-.28,0-.56,0-.83-.01A73.056,73.056,0,0,1,256,88a73.037,73.037,0,0,1-72,63.99c-.17.01-.33.01-.5.01H176V272a31.991,31.991,0,0,1-32-32V136A111.983,111.983,0,0,1,248,24.29c2.64-.2,5.31-.29,8-.29s5.36.09,8,.29A111.977,111.977,0,0,1,368,136Z" style="fill:#844e3a"/><rect x="312" y="303.989" width="40" height="184" style="fill:#426887"/><path d="M352,431.989v-16h0A25.887,25.887,0,0,1,375.155,430.3l.845,1.689h24l-34.67-45.33L352,367.989v-64a45.8,45.8,0,0,1,37.659,19.734l15.791,22.816,31.709,45.793A60.959,60.959,0,0,1,448,427.033h0a60.956,60.956,0,0,1-60.956,60.956H328a16,16,0,0,1-16-16v-24a16,16,0,0,1,16-16Z" style="fill:#fdc8a2"/><path d="M352,303.989v64l13.33,18.67,40.12-40.12-15.791-22.816A45.8,45.8,0,0,0,352,303.989Z" style="fill:#96b268"/><path d="M216,192a16,16,0,1,1,16-16A16.019,16.019,0,0,1,216,192Zm80,0a16,16,0,1,0-16-16A16.019,16.019,0,0,0,296,192Zm-40,32c14.086,0,26.741-8.517,31.491-21.192l-14.982-5.616C270.086,203.657,263.452,208,256,208s-14.086-4.343-16.509-10.808l-14.982,5.616C229.259,215.483,241.914,224,256,224ZM56,426.007A65.4,65.4,0,0,1,67.693,388.6l8.087-11.675,13.153,9.111-8.087,11.675A49.473,49.473,0,0,0,72,426.007v.964a52.985,52.985,0,0,0,52.965,53.04h.016L184.022,480A8.009,8.009,0,0,0,192,472V448a8.009,8.009,0,0,0-8-8H160a8,8,0,0,1-8-8v-6.13a17.819,17.819,0,0,0-8,8.018l-.845,1.69A8,8,0,0,1,136,440H112a8,8,0,0,1-6.354-12.86l30.414-39.766-28.393-28.393-9.18,13.258-13.152-9.111,30.429-43.946a53.793,53.793,0,0,1,36.949-22.669,39.9,39.9,0,0,1,9.364-19.017A40.066,40.066,0,0,1,136,240V136a118.737,118.737,0,0,1,26.087-74.71L174.6,71.259A102.88,102.88,0,0,0,152,136V240a24.042,24.042,0,0,0,16,22.629V135.877a97.733,97.733,0,0,1,1.546-17.3l15.746,2.842A81.612,81.612,0,0,0,184,135.877v8.111A65.161,65.161,0,0,0,247.474,90.73,338.045,338.045,0,0,1,204.2,123.052l-8.4-13.619c24.252-14.956,45.348-34.3,52.2-40.823V57.015a76.654,76.654,0,0,0-7.972,2.021,79.255,79.255,0,0,0-50.675,47.821l-14.946-5.714a95.175,95.175,0,0,1,60.877-57.388A90.518,90.518,0,0,1,248,40.762V32.3a103.218,103.218,0,0,0-65.539,30.157L171.147,51.146A120,120,0,0,1,376,136V240a40.066,40.066,0,0,1-26.077,37.5,39.9,39.9,0,0,1,9.364,19.017,53.564,53.564,0,0,1,36.95,22.669l47.5,68.607L430.581,396.9l-26.249-37.914L375.94,387.374l30.414,39.766A8,8,0,0,1,400,440H376a8,8,0,0,1-7.155-4.422L368,433.889a17.817,17.817,0,0,0-8-8.019V432a8,8,0,0,1-8,8H328a8.009,8.009,0,0,0-8,8v24a8.009,8.009,0,0,0,8,8h59.044A52.956,52.956,0,0,0,437,409.479l15.094-5.307A68.955,68.955,0,0,1,387.044,496s-240.359,0-262.058.011h-.022A68.984,68.984,0,0,1,56,426.971Zm304-60.569,6.353,8.9,28.719-28.721L383.08,328.287A37.807,37.807,0,0,0,360,312.856Zm0,43.519A33.608,33.608,0,0,1,380.786,424h3.024L360,392.87ZM152,392.87,128.19,424h3.023A33.609,33.609,0,0,1,152,408.957Zm0-80.014a37.806,37.806,0,0,0-23.08,15.431l-11.992,17.326,28.719,28.721,6.353-8.9Zm152,46.406c-1.3,1.028-2.62,2.03-3.988,2.98A77.222,77.222,0,0,1,208,359.256V480h96V396.722a107.826,107.826,0,0,1-81.016,6.1l4.9-15.232A91.835,91.835,0,0,0,304,378.453ZM304,312h-8a16.019,16.019,0,0,1-16-16V276.673a88.228,88.228,0,0,1-48,0V296a16.019,16.019,0,0,1-16,16h-8v24.777a61.263,61.263,0,0,0,96,.04Zm38.624-16A24.039,24.039,0,0,0,320,280H296v16ZM320,264a40.028,40.028,0,0,1,8,.805V242.538A88.742,88.742,0,0,1,306.538,264Zm24,48H320V425.376A23.885,23.885,0,0,1,328,424h16ZM264,41.472a105.635,105.635,0,0,1,55.894,33.78c15.108,17.53,23.773,39.628,23.773,60.625L344,262.629A24.042,24.042,0,0,0,360,240V136A104.139,104.139,0,0,0,264,32.305Zm0,45.949a65.15,65.15,0,0,0,63.667,56.559v-8.1c0-.635-.029-1.274-.048-1.913-16.681-8.082-34.572-21.6-53.276-40.307l11.314-11.314c13.394,13.394,26.185,23.863,38.208,31.3C315.693,89.4,294.66,66.381,264,57.956ZM184,192a72,72,0,0,0,144,0V160a81.239,81.239,0,0,1-72-44.813A81.239,81.239,0,0,1,184,160Zm0,72.805a40.028,40.028,0,0,1,8-.805h13.462A88.742,88.742,0,0,1,184,242.538ZM169.376,296H216V280H192A24.039,24.039,0,0,0,169.376,296ZM192,425.376V312H168V424h16A23.889,23.889,0,0,1,192,425.376Z"/></g></svg>
